<svg xmlns="http://www.w3.org/2000/svg" width="32" height="32" viewBox="0 0 32 32"><path d="M16 8.5a7.5 7.5 0 100 15 7.5 7.5 0 000-15zm0 12.188A4.695 4.695 0 0111.312 16c0-2.586 2.104-4.688 4.688-4.688s4.688 2.102 4.688 4.688A4.695 4.695 0 0116 20.688zm8.063-11.751a.999.999 0 110-1.997.999.999 0 010 1.997zM21.625 1h-11.25A9.376 9.376 0 001 10.375v11.25A9.376 9.376 0 0010.375 31h11.25A9.376 9.376 0 0031 21.625v-11.25A9.376 9.376 0 0021.625 1zm6.563 20.625a6.57 6.57 0 01-6.563 6.563h-11.25a6.57 6.57 0 01-6.563-6.563v-11.25a6.57 6.57 0 016.563-6.563h11.25a6.57 6.57 0 016.563 6.563v11.25z"></path></svg>