<svg xmlns="http://www.w3.org/2000/svg" width="32" height="32" viewBox="0 0 32 32"><path d="M29.333 18.777v9.83h-5.716v-9.172c0-2.304-.827-3.876-2.896-3.876-1.579 0-2.519 1.06-2.933 2.085-.151.366-.19.877-.19 1.389v9.574h-5.717s.077-15.534 0-17.144h5.717v2.43l-.038.055h.038v-.055c.76-1.166 2.116-2.833 5.152-2.833 3.762 0 6.582 2.45 6.582 7.716zM5.902 3.2c-1.956 0-3.235 1.279-3.235 2.961 0 1.646 1.242 2.964 3.159 2.964h.038c1.994 0 3.234-1.318 3.234-2.964C9.06 4.479 7.858 3.2 5.902 3.2zM3.006 28.608h5.715V11.464H3.006v17.144z"></path></svg>