<?xml version="1.0" standalone="no"?>
<!DOCTYPE svg PUBLIC "-//W3C//DTD SVG 20010904//EN"
 "http://www.w3.org/TR/2001/REC-SVG-20010904/DTD/svg10.dtd">
<svg version="1.0" xmlns="http://www.w3.org/2000/svg"
 width="768.000000pt" height="768.000000pt" viewBox="0 0 768.000000 768.000000"
 preserveAspectRatio="xMidYMid meet">

<g transform="translate(0.000000,768.000000) scale(0.100000,-0.100000)"
fill="#85796D" stroke="none">
<path d="M3830 7427 c0 -28 -7 -111 -15 -182 -185 -1593 -1330 -2900 -2883
-3290 -222 -55 -542 -105 -679 -105 -29 0 -53 -4 -53 -10 0 -5 24 -10 53 -10
130 0 452 -49 664 -101 1374 -336 2464 -1421 2807 -2794 57 -226 106 -544 106
-682 0 -29 5 -53 10 -53 6 0 10 24 10 53 0 130 49 452 101 664 341 1395 1464
2504 2857 2822 223 51 495 91 620 91 28 0 52 5 52 10 0 6 -24 10 -52 10 -29 0
-111 7 -183 15 -921 107 -1743 524 -2383 1208 -493 528 -834 1212 -961 1927
-25 141 -51 357 -51 427 0 29 -4 53 -10 53 -5 0 -10 -24 -10 -53z"/>
</g>
</svg>
